<svg xmlns="http://www.w3.org/2000/svg" xmlns:xlink="http://www.w3.org/1999/xlink" width="205.19" height="205.19" viewBox="0 0 205.19 205.19"><defs><linearGradient id="a" x1="0.5" x2="0.5" y2="1" gradientUnits="objectBoundingBox"><stop offset="0" stop-color="#792a88"/><stop offset="1" stop-color="#f5eb25"/></linearGradient></defs><g transform="translate(-3.31 -1)"><g transform="translate(3.31 1)"><path d="M202.881,179.714h-9.929V77.119a3.311,3.311,0,0,0-3.31-3.31H147.466a49.643,49.643,0,1,0-87.742,0H17.548a3.311,3.311,0,0,0-3.31,3.31v102.6H4.31A3.311,3.311,0,0,0,1,183.024v9.929a3.328,3.328,0,0,0,.556,1.837l6.619,9.929a3.314,3.314,0,0,0,2.754,1.473H196.262a3.314,3.314,0,0,0,2.754-1.473l6.619-9.929a3.328,3.328,0,0,0,.556-1.837v-9.929A3.311,3.311,0,0,0,202.881,179.714ZM103.6,7.619A43.024,43.024,0,1,1,60.571,50.643,43.073,43.073,0,0,1,103.6,7.619ZM93.667,99.286V106.9h-3.31a3.311,3.311,0,0,0-3.31,3.31v7.056l-4.782-3.19a3.319,3.319,0,0,0-4.309.553L54.647,140.857a10.138,10.138,0,1,0,4.8,4.57l21.548-24.242,6.056,4.038v41.253H34.1V93.667H78.936A49.283,49.283,0,0,0,93.667,99.286Zm3.31,14.238h16.548v13.238H93.667V113.524Zm3.31-6.619v-6.788c1.1.073,2.191.169,3.31.169s2.211-.1,3.31-.169V106.9ZM53.952,149.929a3.31,3.31,0,1,1-3.31-3.31A3.315,3.315,0,0,1,53.952,149.929Zm39.714-16.548h19.857v33.1H93.667Zm26.476,15.773,11.534,6.92a3.311,3.311,0,0,0,4.666-1.357l17.5-35a9.786,9.786,0,0,0,2.707.424,9.96,9.96,0,1,0-8.168-4.306l-16.362,32.725-11.875-7.125V110.214a3.311,3.311,0,0,0-3.31-3.31h-3.31V99.286a49.106,49.106,0,0,0,14.731-5.62H173.1v72.81H120.143Zm33.1-38.94a3.31,3.31,0,1,1,3.31,3.31A3.315,3.315,0,0,1,153.238,110.214ZM20.857,80.429h43.12a50.02,50.02,0,0,0,5.984,6.619H30.786a3.311,3.311,0,0,0-3.31,3.31v79.429a3.311,3.311,0,0,0,3.31,3.31H176.4a3.311,3.311,0,0,0,3.31-3.31V90.357a3.311,3.311,0,0,0-3.31-3.31H137.23a50.02,50.02,0,0,0,5.984-6.619h43.12v99.286H20.857ZM199.571,191.95l-5.08,7.622H12.7l-5.08-7.622v-5.616H199.571Z" transform="translate(-1 -1)" fill="url(#a)"/><path d="M57.4,11.619V5A36.448,36.448,0,0,0,21,41.4h6.619A29.822,29.822,0,0,1,57.4,11.619Z" transform="translate(45.19 8.238)" fill="url(#a)"/><path d="M32,45.786V52.4A36.448,36.448,0,0,0,68.4,16H61.786A29.822,29.822,0,0,1,32,45.786Z" transform="translate(70.595 33.643)" fill="url(#a)"/><path d="M30.973,32.187l-4.68,4.68L39.531,50.1a3.3,3.3,0,0,0,2.34.97q.129,0,.258-.01a3.3,3.3,0,0,0,2.416-1.354l26.476-36.4-5.351-3.9L41.47,42.685Z" transform="translate(57.415 18.425)" fill="url(#a)"/></g></g></svg>