<?xml version="1.0" encoding="utf-8"?>
<!-- Generator: Adobe Illustrator 22.0.1, SVG Export Plug-In . SVG Version: 6.00 Build 0)  -->
<svg version="1.1" id="Layer_1" xmlns="http://www.w3.org/2000/svg" xmlns:xlink="http://www.w3.org/1999/xlink" x="0px" y="0px"
	 viewBox="0 0 188 56.7" style="enable-background:new 0 0 188 56.7;" xml:space="preserve">
<style type="text/css">
	.st0{clip-path:url(#SVGID_2_);fill:url(#SVGID_3_);}
	.st1{fill:url(#SVGID_4_);}
	.st2{fill:#792A88;}
	.st3{fill-rule:evenodd;clip-rule:evenodd;fill:#792A88;}
	.st4{fill-rule:evenodd;clip-rule:evenodd;fill:#FFFFFF;}
	.st5{fill:#772A83;}
</style>
<g>
	<g>
		<defs>
			<polygon id="SVGID_1_" points="103.6,8.4 127.3,55.6 188.1,40.9 			"/>
		</defs>
		<clipPath id="SVGID_2_">
			<use xlink:href="#SVGID_1_"  style="overflow:visible;"/>
		</clipPath>
		
			<linearGradient id="SVGID_3_" gradientUnits="userSpaceOnUse" x1="-52.1753" y1="250.7387" x2="-51.4055" y2="250.7387" gradientTransform="matrix(89.8495 89.8495 89.8495 -89.8495 -17728.5977 27215.0723)">
			<stop  offset="0" style="stop-color:#F5EB25"/>
			<stop  offset="0.4502" style="stop-color:#F5EB25"/>
			<stop  offset="0.5716" style="stop-color:#F9F381"/>
			<stop  offset="0.6971" style="stop-color:#FDFCDB"/>
			<stop  offset="0.7541" style="stop-color:#FFFFFF"/>
			<stop  offset="1" style="stop-color:#FFFFFF"/>
		</linearGradient>
		<polygon class="st0" points="145.8,-33.8 211.6,32 145.8,97.8 80,32 		"/>
	</g>
	
		<linearGradient id="SVGID_4_" gradientUnits="userSpaceOnUse" x1="-52.4201" y1="250.7269" x2="-51.6502" y2="250.7269" gradientTransform="matrix(112.437 0 0 -112.437 5996.7627 28222.9844)">
		<stop  offset="0" style="stop-color:#F5EB25"/>
		<stop  offset="0.1525" style="stop-color:#F5EB25"/>
		<stop  offset="0.393" style="stop-color:#F9F381"/>
		<stop  offset="0.6413" style="stop-color:#FDFCDB"/>
		<stop  offset="0.7541" style="stop-color:#FFFFFF"/>
		<stop  offset="1" style="stop-color:#FFFFFF"/>
	</linearGradient>
	<polygon class="st1" points="103.6,8.4 103.6,8.4 127.3,55.6 188.1,40.9 103.6,8.4 103.6,8.4 103.6,8.4 188.1,40.9 127.3,55.6 
		103.6,8.4 	"/>
	<g>
		<path class="st2" d="M97.9,17.8c0,0.3-0.1,0.5-0.1,0.7c-0.1,3.4-0.3,6.8-0.4,10.2c-0.2,4.9-0.4,9.8-0.6,14.8
			c0,0.4,0.1,0.6,0.5,0.8c2.4,1,4.8,1.2,7.2,0.4c1.8-0.7,1.5-0.3,1.4-2.1c-0.3-6.5-0.5-13.1-0.8-19.6c-0.1-1.7-0.2-3.4-0.2-5.2H97.9
			z M101.3,7L101.3,7c0.4,0,0.8,0,1.2,0c0.4,0,0.8,0,1.2,0c0.2,0,0.4-0.1,0.6-0.3c0.3-0.5,0.5-1,0.9-1.4c0.8-1.2,0.7-2-0.5-2.7
			c-1-0.6-2.1-1-3.1-1.5c-0.1-0.1-0.3-0.1-0.4,0c-1.1,0.5-2.2,0.9-3.2,1.5c-1.1,0.7-1.2,1.6-0.5,2.6c0.3,0.4,0.6,0.9,0.9,1.4
			C98.5,6.8,98.7,7,98.9,7C99.7,7.1,100.5,7,101.3,7 M97,16.3h8.7c0-0.9,0-1.8,0-2.7c0-0.1-0.3-0.4-0.5-0.4c-2.6,0-5.2,0-7.8,0
			c-0.2,0-0.4,0.2-0.4,0.4C96.9,14.5,97,15.4,97,16.3 M104.2,9.2h-5.9c0,1,0,2,0,3c0,0.5,0.2,0.6,0.7,0.6c1.5,0,3.1,0,4.6,0
			c0.2,0,0.4,0,0.6-0.1V9.2z"/>
		<path class="st3" d="M97.9,17.8h6.8c0.1,1.7,0.2,3.5,0.2,5.2c0.3,6.5,0.6,13.1,0.8,19.6c0.1,1.7,0.4,1.4-1.4,2.1
			c-2.4,0.9-4.8,0.7-7.2-0.4c-0.4-0.2-0.5-0.4-0.5-0.8c0.2-4.9,0.4-9.8,0.6-14.8c0.1-3.4,0.3-6.8,0.4-10.2
			C97.9,18.3,97.9,18.1,97.9,17.8 M103.3,21.9h-3.9V25h3.9V21.9z"/>
		<path class="st3" d="M101.3,7c-0.8,0-1.6,0-2.4,0c-0.2,0-0.5-0.2-0.6-0.4c-0.3-0.4-0.6-0.9-0.9-1.4c-0.7-1.1-0.6-2,0.5-2.6
			c1-0.6,2.1-1,3.2-1.5c0.1-0.1,0.3,0,0.4,0c1.1,0.5,2.1,0.9,3.1,1.5c1.2,0.7,1.3,1.6,0.5,2.7c-0.3,0.5-0.6,1-0.9,1.4
			c-0.1,0.1-0.4,0.2-0.6,0.3c-0.4,0-0.8,0-1.2,0C102.1,7,101.7,7,101.3,7L101.3,7z"/>
		<path class="st3" d="M97,16.3c0-0.9,0-1.8,0-2.7c0-0.1,0.3-0.4,0.4-0.4c2.6,0,5.2,0,7.8,0c0.2,0,0.5,0.2,0.5,0.4
			c0,0.9,0,1.7,0,2.7H97z"/>
		<rect x="99.4" y="21.9" class="st4" width="3.9" height="3.1"/>
		<rect x="99.1" y="7" class="st5" width="4.5" height="2.2"/>
	</g>
	<g>
		<path class="st2" d="M6.9,36.3H6.8l-0.6-2C5.2,34.1,4.1,34-0.1,34v-0.3h7.2L6.9,36.3z M6.6,40.3H6.4l-0.7-1.5
			c-0.3,0-0.9-0.1-1.7-0.1c-0.3,0-0.8,0-1.1,0c0,0.5,0,1.1,0,1.4c0,2.8,0.8,3.4,5.2,3.4v0.2c-5.1,0-6.2-0.2-6.2-2.8
			c0-0.9,0-1.8,0-2.5c0-1.7-0.1-2.8-0.1-3.5l1.1,0.6c0,0.7-0.1,1.5-0.1,1.9c0,0.6,0,0.7,0,1c0.3,0,1,0,1.3,0c1,0,1.6,0,1.9-0.1
			c0.1-0.1,0.2-0.2,0.3-0.3h0.2V40.3z"/>
		<path class="st2" d="M15.1,34.3C14.1,34.1,13,34,8.9,34v-0.3h7.2l-0.2,2.5h-0.2L15.1,34.3z M14.7,38.8c-0.3,0-0.9-0.1-1.7-0.1
			c-0.3,0-0.8,0-1.1,0c0,0.5,0,1.1,0,1.4c0,2.4,0,3.2,0.1,3.6H8.9v-0.2c1,0,1.6-0.1,1.8-0.3c0.1-0.2,0.2-0.5,0.2-3.9v-0.8
			c0-1.7-0.1-2.8-0.1-3.5l1.1,0.6c0,0.7-0.1,1.5-0.1,1.9c0,0.6,0,0.7,0,1c0.3,0,1,0,1.3,0c1,0,1.6,0,1.9-0.1
			c0.1-0.1,0.2-0.2,0.3-0.3h0.2v2.3h-0.2L14.7,38.8z"/>
		<path class="st2" d="M24,34.3c-0.9-0.2-2.1-0.2-6.2-0.2v-0.3H25l-0.2,2.5h-0.2L24,34.3z M23.6,38.8c-0.3,0-0.9-0.1-1.7-0.1
			c-0.3,0-0.8,0-1.1,0c0,0.5,0,1.1,0,1.4c0,2.4,0,3.2,0.1,3.6h-3.1v-0.2c1,0,1.6-0.1,1.8-0.3c0.1-0.2,0.2-0.5,0.2-3.9v-0.8
			c0-1.7-0.1-2.8-0.1-3.5l1.1,0.6c0,0.7-0.1,1.5-0.1,1.9c0,0.6,0,0.7,0,1c0.3,0,1,0,1.3,0c1,0,1.6,0,1.9-0.1
			c0.1-0.1,0.2-0.2,0.3-0.3h0.2v2.3h-0.2L23.6,38.8z"/>
		<path class="st2" d="M26.3,43.5c2.6,0,4.7-0.2,6.3-0.7c1.9-0.6,3-2,3-3.9c0-1.4-0.8-3-3-3.1v-0.1c0.3-0.1,0.7-0.1,0.9-0.1
			c1.5,0,3.3,0.9,3.3,3.2c0,1.9-1.3,3.5-3.4,4.2c-1.7,0.6-4,0.7-7,0.7V43.5z M37.9,34c-2.6,0-4.7,0.2-6.3,0.7c-1.9,0.6-3,2-3,3.9
			c0,1.4,0.8,3,3,3.1v0.1c-0.3,0.1-0.7,0.1-0.9,0.1c-1.5,0-3.3-0.9-3.3-3.2c0-1.9,1.3-3.5,3.4-4.2c1.7-0.6,4-0.7,7-0.7V34z"/>
		<path class="st2" d="M38.3,33.8c4.8,0,8.2,0.1,8.2,2.6c0,1-0.9,2.2-2.8,2.3l0-0.1c1.3-0.4,1.6-1.3,1.6-2c0-2.5-3.6-2.5-7.1-2.5
			V33.8z M41.3,35.5c0,0.7-0.1,2.1-0.1,4.3c0,3,0,3.6,0.1,4h-3.1v-0.2c1,0,1.6-0.1,1.8-0.3c0.1-0.2,0.2-0.5,0.2-3.9
			c0-2.5-0.1-3.6-0.1-4.4L41.3,35.5z M41.9,39.1c0.4-0.1,0.8-0.1,1.1-0.1c2.7,0,2.9,2.7,3.8,4.4c0.3,0.1,0.6,0.1,1.1,0.1v0.2
			c-0.9,0-1.7,0-2.2,0.1c-0.1-0.4-0.3-1.1-0.6-1.8c-0.6-1.5-1.4-2.8-3.2-2.8L41.9,39.1z"/>
		<path class="st2" d="M48.9,36.3h-0.2l-0.2-2.5h7.9V34c-4.7,0-5.9,0.1-6.9,0.2L48.9,36.3z M53.2,35.5c0,0.7-0.1,1.5-0.1,2.7v2.5
			c0,2.1,0.1,2.5,0.2,2.7c0.2,0.1,0.6,0.2,1.1,0.2h0.3v0.2c-0.8,0-1.4-0.1-2-0.1c-0.6,0-1.3,0.1-2.1,0.1v-0.2H51
			c0.5,0,0.9,0,1.1-0.2c0.1-0.2,0.2-0.6,0.2-2.9V38c0-1.6-0.1-2.4-0.1-3.1L53.2,35.5z"/>
		<path class="st2" d="M64.3,41.3h0.2l0,2.5h-7.6v-0.2h0.7c0.5,0,0.9,0,1.1-0.2c0.1-0.2,0.2-0.6,0.2-4V38c0-3.2-0.1-3.6-0.2-3.8
			c-0.2-0.1-0.6-0.2-1.1-0.2h-0.7v-0.3c1.2,0,2.4,0,3-0.1c0,0.5-0.1,1-0.1,4.3v1.2c0,2.8,0.1,3.7,0.1,3.9c0.3,0.2,1,0.3,1.8,0.3
			c0.6,0,1.2-0.1,1.8-0.3L64.3,41.3z"/>
		<path class="st2" d="M71.9,36.3h-0.2l-0.6-2C70.1,34.1,69,34,64.9,34v-0.3h7.2L71.9,36.3z M71.5,40.3h-0.2l-0.7-1.5
			c-0.3,0-0.9-0.1-1.7-0.1c-0.3,0-0.8,0-1.1,0c0,0.5,0,1.1,0,1.4c0,2.8,0.8,3.4,5.2,3.4v0.2c-5.1,0-6.2-0.2-6.2-2.8
			c0-0.9,0-1.8,0-2.5c0-1.7-0.1-2.8-0.1-3.5l1.1,0.6c0,0.7-0.1,1.5-0.1,1.9c0,0.6,0,0.7,0,1c0.3,0,1,0,1.3,0c1,0,1.6,0,1.9-0.1
			c0.1-0.1,0.2-0.2,0.3-0.3h0.2V40.3z"/>
		<path class="st2" d="M79.5,34.1c-0.3-0.1-0.9-0.2-1.4-0.2c-1.7,0-2.7,0.8-2.7,1.9c0,2.2,3.4,1.9,4.8,3.4c0.4,0.4,0.6,0.9,0.6,1.6
			c0,0.8-0.4,1.7-1.8,2.3c-1.1,0.4-2.7,0.8-5.4,0.8v-0.2c2.3,0,3.8-0.3,4.7-0.7c0.9-0.4,1.4-1.2,1.4-1.9c0-2.1-3.2-1.8-4.6-3.1
			c-0.4-0.4-0.7-0.9-0.7-1.6c0-1.6,1.6-2.6,3.4-2.6c0.8,0,1.8,0.1,2.4,0.3L80.3,36h-0.2L79.5,34.1z"/>
		<path class="st2" d="M88.3,34.1c-0.3-0.1-0.9-0.2-1.4-0.2c-1.7,0-2.7,0.8-2.7,1.9c0,2.2,3.4,1.9,4.8,3.4c0.4,0.4,0.6,0.9,0.6,1.6
			c0,0.8-0.4,1.7-1.8,2.3c-1.1,0.4-2.7,0.8-5.4,0.8v-0.2c2.3,0,3.8-0.3,4.7-0.7c0.9-0.4,1.4-1.2,1.4-1.9c0-2.1-3.2-1.8-4.6-3.1
			c-0.4-0.4-0.7-0.9-0.7-1.6c0-1.6,1.6-2.6,3.4-2.6c0.8,0,1.8,0.1,2.4,0.3L89,36h-0.2L88.3,34.1z"/>
	</g>
	<g>
		<path class="st2" d="M109.7,32.6h2.7l1.3,3.5c0.4,1.1,0.7,2,0.9,2.7h0.1l-0.1-1.9v-4.4h2.5v11.2h-2.6l-1.3-3.5
			c-0.4-1.1-0.7-2-0.9-2.7h-0.1l0.1,1.9v4.4h-2.5V32.6z"/>
		<path class="st2" d="M119.3,40.4c0.9,0.8,1.7,1.2,2.4,1.2c0.4,0,0.7-0.1,1-0.4c0.3-0.3,0.4-0.6,0.4-0.9c0-0.3-0.1-0.5-0.3-0.8
			c-0.2-0.2-0.6-0.5-1.1-0.8c-0.8-0.4-1.4-0.8-1.8-1.3c-0.4-0.5-0.6-1.1-0.6-1.8c0-0.9,0.3-1.7,1-2.4c0.7-0.6,1.5-1,2.6-1
			c0.7,0,1.5,0.2,2.3,0.6v2.7c-0.7-0.7-1.4-1-2-1c-0.3,0-0.6,0.1-0.8,0.3c-0.2,0.2-0.4,0.4-0.4,0.7c0,0.3,0.1,0.5,0.3,0.7
			c0.2,0.2,0.5,0.4,1,0.6c0.8,0.4,1.5,0.8,1.9,1.3c0.4,0.5,0.7,1.1,0.7,2c0,1-0.4,1.9-1.1,2.7c-0.7,0.7-1.7,1.1-2.7,1.1
			c-0.8,0-1.7-0.3-2.7-0.8V40.4z"/>
		<path class="st2" d="M128.1,32.6h2.6v11.2h-2.6V32.6z"/>
		<path class="st2" d="M138.1,42.9c-0.3,0.3-0.5,0.6-0.8,0.8c-0.3,0.2-0.6,0.3-0.9,0.3c-0.6,0-1.2-0.2-1.8-0.7
			c-0.6-0.5-1-1.2-1.2-2.1c-0.3-0.9-0.4-1.9-0.4-2.9c0-1.7,0.4-3.1,1.2-4.2c0.8-1.1,1.8-1.6,3.1-1.6c0.9,0,1.7,0.2,2.4,0.7v2.5
			c-0.7-0.6-1.3-0.8-1.8-0.8c-0.7,0-1.3,0.3-1.6,1c-0.4,0.6-0.5,1.5-0.5,2.6c0,1,0.1,1.9,0.4,2.5c0.2,0.6,0.6,0.9,1,0.9
			c0.2,0,0.4-0.1,0.5-0.3c0.1-0.2,0.2-0.5,0.2-0.9v-0.7h-0.9v-2h3.3v6h-1.3L138.1,42.9z"/>
		<path class="st2" d="M142.4,32.6h2.6v4.3h2.1v-4.3h2.6v11.2h-2.6v-4.7H145v4.7h-2.6V32.6z"/>
		<path class="st2" d="M151.8,32.6h7.1v2.3h-2.3v8.9H154v-8.9h-2.2V32.6z"/>
	</g>
</g>
</svg>
