<?xml version="1.0" encoding="utf-8"?>
<!-- Generator: Adobe Illustrator 22.0.1, SVG Export Plug-In . SVG Version: 6.00 Build 0)  -->
<svg version="1.1" id="Layer_1" xmlns="http://www.w3.org/2000/svg" xmlns:xlink="http://www.w3.org/1999/xlink" x="0px" y="0px"
	 viewBox="0 0 94.3 29.7" style="enable-background:new 0 0 94.3 29.7;" xml:space="preserve">
<style type="text/css">
	.st0{fill:#FFFFFF;}
</style>
<g>
	<polygon class="st0" points="57.9,16.9 58.5,18.2 58.5,16.9 	"/>
	<path class="st0" d="M3.9,18.7L3.9,18.7l0.2-1.2H0.5v0.1c2,0,2.6,0,3.1,0.1L3.9,18.7z"/>
	<path class="st0" d="M2,20.7c0-0.1,0-0.5,0-0.7c0.1,0,0.4,0,0.5,0c0.4,0,0.7,0,0.8,0l0.3,0.7h0.1v-1.2H3.7c0,0.1-0.1,0.1-0.1,0.1
		c-0.1,0-0.4,0-0.9,0c-0.2,0-0.5,0-0.6,0c0-0.1,0-0.2,0-0.5c0-0.2,0-0.6,0-0.9L1.5,18c0,0.3,0,0.9,0,1.7c0,0.3,0,0.8,0,1.2
		c0,1.3,0.5,1.4,3.1,1.4v-0.1C2.4,22.3,2,22.1,2,20.7z"/>
	<path class="st0" d="M4.9,17.6c2,0,2.6,0,3.1,0.1l0.3,1h0.1l0.1-1.2H4.9V17.6z"/>
	<path class="st0" d="M8,19.7c-0.1,0-0.4,0-0.9,0c-0.2,0-0.5,0-0.6,0c0-0.1,0-0.2,0-0.5c0-0.2,0-0.6,0-0.9L5.9,18c0,0.3,0,0.9,0,1.7
		v0.4c0,1.7,0,1.8-0.1,1.9c-0.1,0.1-0.4,0.1-0.9,0.1v0.1h1.5c0-0.2,0-0.6,0-1.8c0-0.1,0-0.5,0-0.7c0.1,0,0.4,0,0.5,0
		c0.4,0,0.7,0,0.8,0l0.3,0.7h0.1v-1.1H8.2C8.1,19.7,8.1,19.7,8,19.7z"/>
	<path class="st0" d="M9.3,17.6c2,0,2.6,0,3.1,0.1l0.3,1h0.1l0.1-1.2H9.3V17.6z"/>
	<path class="st0" d="M12.4,19.7c-0.1,0-0.4,0-0.9,0c-0.2,0-0.5,0-0.6,0c0-0.1,0-0.2,0-0.5c0-0.2,0-0.6,0-0.9L10.3,18
		c0,0.3,0,0.9,0,1.7v0.4c0,1.7,0,1.8-0.1,1.9c-0.1,0.1-0.4,0.1-0.9,0.1v0.1h1.5c0-0.2,0-0.6,0-1.8c0-0.1,0-0.5,0-0.7
		c0.1,0,0.4,0,0.5,0c0.4,0,0.7,0,0.8,0l0.3,0.7h0.1v-1.1h-0.1C12.5,19.7,12.5,19.7,12.4,19.7z"/>
	<path class="st0" d="M17.1,18.4c-0.1,0-0.3,0-0.4,0v0c1.1,0.1,1.5,0.8,1.5,1.5c0,0.9-0.5,1.6-1.5,1.9c-0.8,0.2-1.8,0.3-3.1,0.3v0.1
		c1.4,0,2.6-0.1,3.5-0.3c1.1-0.3,1.7-1.1,1.7-2.1C18.7,18.9,17.8,18.4,17.1,18.4z"/>
	<path class="st0" d="M14.2,19.9c0,1.1,0.9,1.6,1.6,1.6c0.1,0,0.3,0,0.4,0v0c-1.1-0.1-1.5-0.8-1.5-1.5c0-0.9,0.5-1.6,1.5-1.9
		c0.8-0.2,1.8-0.3,3.1-0.3v-0.1c-1.4,0-2.6,0.1-3.5,0.3C14.7,18.2,14.2,18.9,14.2,19.9z"/>
	<path class="st0" d="M21,18.3L20.4,18c0,0.3,0,0.9,0,2.2c0,1.7,0,1.8-0.1,1.9c-0.1,0.1-0.4,0.1-0.9,0.1v0.1H21c0-0.2,0-0.5,0-2
		C21,19.4,21,18.7,21,18.3z"/>
	<path class="st0" d="M21.8,20.1c-0.1,0-0.3,0-0.5,0v0c0.9,0,1.3,0.6,1.6,1.4c0.1,0.3,0.2,0.7,0.3,0.9c0.2,0,0.6,0,1.1,0v-0.1
		c-0.2,0-0.4,0-0.5,0C23.3,21.4,23.2,20.1,21.8,20.1z"/>
	<path class="st0" d="M23,18.8c0,0.3-0.1,0.8-0.8,1v0c0.9,0,1.4-0.6,1.4-1.1c0-1.2-1.7-1.3-4.1-1.3v0.1C21.2,17.6,23,17.6,23,18.8z"
		/>
	<path class="st0" d="M24.7,18.7L24.7,18.7l0.4-1c0.5-0.1,1.1-0.1,3.4-0.1v-0.1h-3.9L24.7,18.7z"/>
	<path class="st0" d="M26.9,22.3c0-0.1-0.1-0.3-0.1-1.3v-1.2c0-0.6,0-0.9,0-1.3L26.3,18c0,0.3,0,0.7,0,1.5v1.2c0,1.1,0,1.3-0.1,1.4
		c-0.1,0-0.3,0.1-0.5,0.1h-0.1v0.1c0.4,0,0.7,0,1,0c0.3,0,0.6,0,1,0v-0.1h-0.1C27.3,22.3,27.1,22.3,26.9,22.3z"/>
	<path class="st0" d="M32.4,21.2L32,22.2c-0.3,0.1-0.6,0.1-0.9,0.1c-0.4,0-0.7,0-0.9-0.1c0-0.1,0-0.5,0-1.9v-0.6c0-1.7,0-1.9,0-2.1
		c-0.3,0-0.9,0-1.5,0v0h0.3c0.2,0,0.4,0,0.5,0.1c0,0.1,0.1,0.3,0.1,1.9v0.6c0,1.7,0,1.9-0.1,2c-0.1,0-0.3,0.1-0.5,0.1h-0.3v0.1h3.8
		v-1.2L32.4,21.2L32.4,21.2z"/>
	<path class="st0" d="M34.1,20.7c0-0.1,0-0.5,0-0.7c0.1,0,0.4,0,0.5,0c0.4,0,0.7,0,0.8,0l0.3,0.7H36v-1.2h-0.1
		c0,0.1-0.1,0.1-0.1,0.1c-0.1,0-0.4,0-0.9,0c-0.2,0-0.5,0-0.6,0c0-0.1,0-0.2,0-0.5c0-0.2,0-0.6,0-0.9L33.6,18c0,0.3,0,0.9,0,1.7
		c0,0.3,0,0.8,0,1.2c0,1.3,0.5,1.4,3.1,1.4v-0.1C34.5,22.3,34.1,22.1,34.1,20.7z"/>
	<path class="st0" d="M36.1,18.7L36.1,18.7l0.2-1.2h-3.6v0.1c2,0,2.6,0,3.1,0.1L36.1,18.7z"/>
	<path class="st0" d="M51.9,4.9V4.2c0,0,0,0,0,0c0,0,0.1,0,0.2,0c0,0,0,0,0.1,0c0.1-0.2,0.2-0.5,0.4-0.7c0.1-0.2,0.2-0.4,0.2-0.6
		c0-0.3-0.1-0.5-0.5-0.7c-0.3-0.2-0.7-0.3-1.1-0.5c-0.1,0-0.3-0.1-0.4-0.2c0,0,0,0-0.1,0c0,0,0,0-0.1,0c-0.4,0.2-0.9,0.4-1.3,0.6
		c-0.1,0-0.2,0.1-0.3,0.1c0,0-0.1,0.1-0.2,0.1c-0.2,0.2-0.3,0.4-0.3,0.6c0,0.1,0.1,0.3,0.2,0.5c0,0,0.1,0.1,0.1,0.2
		c0.1,0.1,0.2,0.3,0.3,0.4l0,0c0,0,0.1,0.1,0.2,0.1h0c0,0,0.1,0,0.1,0v1.1h-0.3c0,0.5,0,1,0,1.5c0,0.2,0.1,0.3,0.3,0.3
		c0.7,0,1.5,0,2.3,0c0.1,0,0.2,0,0.3,0V5.6l3.4,6.6l2.3,4.7h-0.6v2.2l0,0.9h0c-0.1-0.4-0.2-0.8-0.4-1.3L56.3,17h-1.3v5.5h1.2v-2.2
		l0-0.9h0c0.1,0.4,0.2,0.8,0.4,1.3l0.6,1.7h1.3v-4.2l-0.6-1.3h0.6v1.3l1.4,2.8c0.3,0.2,0.6,0.3,0.9,0.3c0.2,0,0.3,0,0.5-0.2
		c0.1-0.1,0.2-0.3,0.2-0.4c0-0.1,0-0.2-0.1-0.4c-0.1-0.1-0.3-0.2-0.5-0.4c-0.4-0.2-0.7-0.4-0.9-0.6c-0.2-0.2-0.3-0.5-0.3-0.9
		c0-0.4,0.1-0.8,0.5-1.2c0.3-0.3,0.7-0.5,1.3-0.5c0.3,0,0.7,0.1,1.1,0.3v1.3c-0.3-0.3-0.7-0.5-1-0.5c-0.1,0-0.3,0-0.4,0.1
		c-0.1,0.1-0.2,0.2-0.2,0.3c0,0.1,0,0.2,0.1,0.3c0.1,0.1,0.2,0.2,0.5,0.3c0.4,0.2,0.7,0.4,0.9,0.6c0.2,0.2,0.3,0.5,0.3,1
		c0,0.5-0.2,0.9-0.5,1.3c-0.3,0.3-0.8,0.5-1.3,0.5c-0.1,0-0.2,0-0.3,0L60,21.1c-0.1-0.1-0.2-0.1-0.3-0.2v1.4c0.3,0.2,0.7,0.3,1,0.3
		l2.9,5.8l19.5-4.7L93.7,21L51.9,4.9z M65.3,22.5H64v-5.5h1.3V22.5z M69.9,22.5h-0.6l-0.3-0.4c-0.1,0.1-0.2,0.3-0.4,0.4
		c-0.1,0.1-0.3,0.1-0.4,0.1c-0.3,0-0.6-0.1-0.9-0.3c-0.3-0.2-0.5-0.6-0.6-1c-0.1-0.4-0.2-0.9-0.2-1.4c0-0.8,0.2-1.5,0.6-2.1
		c0.4-0.5,0.9-0.8,1.5-0.8c0.4,0,0.8,0.1,1.2,0.3v1.2c-0.3-0.3-0.6-0.4-0.9-0.4c-0.3,0-0.6,0.1-0.8,0.5c-0.2,0.3-0.2,0.7-0.2,1.3
		c-0.1,0.4,0,0.8,0,1.1c0.1,0.3,0.3,0.4,0.5,0.4c0.1,0,0.2,0,0.2-0.1c0-0.1,0.1-0.2,0.1-0.4v-0.3h-0.4v-1h1.6V22.5z M74.7,22.5h-1.3
		v-2.3h-1v2.3h-1.3v-5.5h1.3V19h1v-2.1h1.3V22.5z M79.3,18h-1.1v4.4h-1.3V18h-1.1v-1.1h3.5V18z"/>
	<path class="st0" d="M52.5,12.1c0-0.8-0.1-1.7-0.1-2.6h-3.4c0,0.1,0,0.2,0,0.3c0,1.7-0.1,3.4-0.2,5.1c-0.1,2.4-0.2,4.9-0.3,7.3
		c0,0.1,0,0.2,0,0.2c0,0,0.1,0.1,0.1,0.1c0.6,0.3,1.3,0.4,2,0.4c0.5,0,1-0.1,1.6-0.2c0.1,0,0.2,0,0.3-0.1c0.3-0.1,0.4-0.1,0.4-0.3
		c0-0.1,0-0.2,0-0.3c0-0.1-0.1-0.2-0.1-0.3C52.8,18.6,52.7,15.4,52.5,12.1z M51.7,13.1h-1.9v-1.5h1.9V13.1z"/>
	<path class="st0" d="M52.9,8.3c0,0,0-0.1,0-0.1c0,0,0-0.1,0-0.1c0-0.1,0-0.3,0-0.5c0,0-0.1-0.1-0.1-0.1c0,0,0,0,0,0
		c-1.3,0-2.6,0-3.9,0c0,0-0.1,0-0.2,0.1l0,0c0,0.4,0,0.8,0,1.3h4.3C52.9,8.7,52.9,8.5,52.9,8.3z"/>
	<path class="st0" d="M37.9,18.5c0-0.5,0.5-0.9,1.3-0.9c0.2,0,0.5,0,0.7,0.1l0.3,0.9h0.1l0.1-1c-0.3,0-0.8-0.1-1.2-0.1
		c-0.9,0-1.7,0.4-1.7,1.3c0,0.3,0.1,0.6,0.3,0.8c0.7,0.6,2.3,0.5,2.3,1.5c0,0.4-0.2,0.7-0.7,0.9c-0.4,0.2-1.2,0.3-2.3,0.3v0.1
		c1.3,0,2.1-0.2,2.7-0.4c0.7-0.3,0.9-0.7,0.9-1.1c0-0.3-0.1-0.6-0.3-0.8C39.6,19.4,37.9,19.6,37.9,18.5z"/>
	<path class="st0" d="M42.2,18.5c0-0.5,0.5-0.9,1.3-0.9c0.2,0,0.5,0,0.7,0.1l0.3,0.9h0l0.1-1c-0.3,0-0.8-0.1-1.2-0.1
		c-0.9,0-1.7,0.4-1.7,1.3c0,0.3,0.1,0.6,0.3,0.8c0.7,0.6,2.3,0.5,2.3,1.5c0,0.4-0.2,0.7-0.7,0.9c-0.4,0.2-1.2,0.3-2.3,0.3v0.1
		c1.3,0,2.1-0.2,2.7-0.4c0.7-0.3,0.9-0.7,0.9-1.1c0-0.3-0.1-0.6-0.3-0.8C44,19.4,42.2,19.6,42.2,18.5z"/>
</g>
</svg>
